<svg width="400" height="400" viewBox="0 0 400 400" fill="none" xmlns="http://www.w3.org/2000/svg">
<rect width="400" height="400" rx="200" fill="#E21C37"/>
<path d="M310 244.792L230.104 112.292C226.873 107.238 222.422 103.078 217.161 100.197C211.9 97.3162 205.998 95.806 200 95.806C194.002 95.806 188.1 97.3162 182.839 100.197C177.578 103.078 173.126 107.238 169.896 112.292L90 244.792C87.1776 249.496 85.6436 254.861 85.5522 260.347C85.4608 265.832 86.8151 271.245 89.4792 276.042C92.5591 281.44 97.0173 285.924 102.398 289.036C107.779 292.147 113.889 293.774 120.104 293.75H279.896C286.07 293.816 292.153 292.252 297.53 289.216C302.907 286.18 307.388 281.779 310.521 276.458C313.263 271.612 314.661 266.122 314.569 260.554C314.478 254.987 312.9 249.545 310 244.792ZM200 252.083C197.94 252.083 195.926 251.472 194.213 250.328C192.5 249.183 191.165 247.556 190.376 245.653C189.588 243.75 189.382 241.655 189.783 239.634C190.185 237.614 191.177 235.758 192.634 234.301C194.091 232.844 195.947 231.852 197.968 231.45C199.988 231.048 202.083 231.254 203.986 232.043C205.89 232.831 207.517 234.166 208.661 235.879C209.806 237.592 210.417 239.606 210.417 241.667C210.417 244.429 209.319 247.079 207.366 249.032C205.412 250.986 202.763 252.083 200 252.083ZM210.417 210.417C210.417 213.179 209.319 215.829 207.366 217.782C205.412 219.736 202.763 220.833 200 220.833C197.237 220.833 194.588 219.736 192.634 217.782C190.681 215.829 189.583 213.179 189.583 210.417V168.75C189.583 165.987 190.681 163.338 192.634 161.384C194.588 159.431 197.237 158.333 200 158.333C202.763 158.333 205.412 159.431 207.366 161.384C209.319 163.338 210.417 165.987 210.417 168.75V210.417Z" fill="#FFCB00"/>
</svg>
