<svg width="33" height="26" viewBox="0 0 33 26" fill="none" xmlns="http://www.w3.org/2000/svg">
<path fill-rule="evenodd" clip-rule="evenodd" d="M10.1469 0.500187C8.10843 1.01869 6.91554 1.80094 6.41582 4.09025C5.94528 6.24791 6.88879 8.26857 8.44931 9.30016C10.1964 10.455 19.8038 10.591 22.4068 9.97603C26.8468 8.92709 27.0576 3.26 23.8213 1.06028C21.7433 -0.352304 12.7103 -0.151918 10.1469 0.500187Z" fill="#E21C37"/>
<path fill-rule="evenodd" clip-rule="evenodd" d="M5.27539 16.7809C6.06898 18.5844 6.28568 17.6864 6.97492 19.5962C9.87626 18.3578 15.295 13.5397 22.9604 18.2484C23.4072 18.523 23.573 18.6576 23.9826 18.9159C25.0241 19.572 24.0554 19.0579 25.132 19.5962C26.1775 18.3786 26.6312 18.2821 26.9621 16.779C23.7184 15.0216 21.6637 13.1009 16.3394 13.0539C9.99797 12.9979 9.10146 15.0428 5.27539 16.7809Z" fill="#E21C37"/>
<path fill-rule="evenodd" clip-rule="evenodd" d="M28.0548 18.0763C26.1262 18.9802 25.3994 20.4779 26.3379 22.8097C26.9594 24.3544 28.5545 26.0302 30.7404 25.4305C34.6892 24.347 31.3163 16.5474 28.0548 18.0763Z" fill="#E21C37"/>
<path fill-rule="evenodd" clip-rule="evenodd" d="M0.0978491 24.4148C4.20048 27.1653 7.41154 23.495 6.14542 19.572C5.21969 17.7102 3.17729 17.016 1.69741 18.6003C0.588648 19.7877 -0.303443 22.2418 0.0978491 24.4148Z" fill="#E21C37"/>
</svg>
