<svg width="400" height="400" viewBox="0 0 400 400" fill="none" xmlns="http://www.w3.org/2000/svg">
<rect width="400" height="400" rx="200" fill="#00451D"/>
<path d="M114.062 165.82H84.7656C79.3721 165.82 75 170.192 75 175.586V297.656C75 303.05 79.3721 307.422 84.7656 307.422H114.062C119.456 307.422 123.828 303.05 123.828 297.656V175.586C123.828 170.192 119.456 165.82 114.062 165.82ZM239.618 165.82C232.098 165.82 227.29 157.807 230.829 151.172L248.619 117.816C254.715 106.384 246.432 92.5781 233.476 92.5781C228.925 92.5782 224.559 94.3862 221.341 97.6045L164.566 154.379C157.241 161.705 153.125 171.641 153.125 182V268.359C153.125 289.933 170.614 307.422 192.188 307.422H273.068C286.4 307.422 298.051 298.42 301.416 285.52L324.159 198.34C324.717 196.2 325 193.998 325 191.786C325 177.446 313.375 165.82 299.034 165.82H239.618Z" fill="#FFCB00"/>
</svg>
